<mxfile host="app.diagrams.net" modified="2022-07-17T03:51:03.556Z" agent="5.0 (Macintosh; Intel Mac OS X 10_15_7) AppleWebKit/537.36 (KHTML, like Gecko) Chrome/103.0.0.0 Safari/537.36" etag="sZFUYbsAXb0bPmTDo8RE" version="20.1.1" type="github">
  <diagram id="3228e29e-7158-1315-38df-8450db1d8a1d" name="Page-1">
    <mxGraphModel dx="1298" dy="699" grid="0" gridSize="10" guides="1" tooltips="1" connect="1" arrows="1" fold="1" page="1" pageScale="1" pageWidth="600" pageHeight="250" background="#EFF1F3" math="0" shadow="0">
      <root>
        <mxCell id="0" />
        <mxCell id="1" parent="0" />
        <mxCell id="aMB2SkQLuwcF9kNnRCJI-1" value="&lt;font style=&quot;font-size: 30px;&quot;&gt;夏洛&lt;/font&gt;" style="rounded=1;whiteSpace=wrap;html=1;strokeWidth=1;fontSize=30;strokeColor=#000000;fillColor=#67AB9F;" parent="1" vertex="1">
          <mxGeometry x="148" y="65" width="124" height="60" as="geometry" />
        </mxCell>
        <mxCell id="LV4p365XhPEVE4Nknt55-2" value="&lt;font style=&quot;font-size: 30px;&quot;&gt;特烦恼&lt;/font&gt;" style="rounded=1;whiteSpace=wrap;html=1;strokeWidth=1;fontSize=30;strokeColor=#000000;fillColor=#FDD276;" parent="1" vertex="1">
          <mxGeometry x="272" y="65" width="172" height="60" as="geometry" />
        </mxCell>
        <mxCell id="RTzJ7AqwZNT3_i_I9ckD-1" value="&lt;font style=&quot;font-size: 30px;&quot;&gt;夏洛特&lt;/font&gt;" style="rounded=1;whiteSpace=wrap;html=1;strokeWidth=1;fontSize=30;strokeColor=#000000;fillColor=#FDD276;" vertex="1" parent="1">
          <mxGeometry x="148" y="125" width="172" height="60" as="geometry" />
        </mxCell>
        <mxCell id="RTzJ7AqwZNT3_i_I9ckD-2" value="&lt;font style=&quot;font-size: 30px;&quot;&gt;烦恼&lt;/font&gt;" style="rounded=1;whiteSpace=wrap;html=1;strokeWidth=1;fontSize=30;strokeColor=#000000;fillColor=#67AB9F;" vertex="1" parent="1">
          <mxGeometry x="320" y="125" width="124" height="60" as="geometry" />
        </mxCell>
      </root>
    </mxGraphModel>
  </diagram>
</mxfile>
